<svg xmlns="http://www.w3.org/2000/svg" viewBox="20.979 21.016 90.438 92.965">
  <path fill="#ffffff" d="M21.979 50.794v32.367c0 5.177 2.589 9.496 7.336 12.084l32.8 18.128c3.021 1.726 6.905-.43 6.905-3.884V66.331l38.411-19.421c3.454-1.727 3.454-6.474 0-8.2l-33.664-16.4c-3.884-1.727-8.2-1.727-12.084 0l-31.935 16.4c-4.748 2.591-7.769 6.906-7.769 12.084z"/>
  <path fill="#ffffff" d="M24.137 43.89c-1.295 2.158-2.158 4.748-2.158 6.905v32.367c0 5.177 2.589 9.496 7.336 12.084l32.8 18.128c3.021 1.726 6.905-.43 6.905-3.884V66.331l.864-.432L24.137 43.89z"/>
</svg>
