<svg id="svelte" 
    xmlns="http://www.w3.org/2000/svg" width="100" height="130" viewBox="63 23 14 93">
    <path id="front" fill="#fff" d="M61.89,112.16a20.73,20.73,0,0,1-22.24-8.25,19.14,19.14,0,0,1-3.27-14.5A17,17,0,0,1,37,87l.49-1.5,1.34,1A33.78,33.78,0,0,0,49,91.56l1,.29-.09,1A5.9,5.9,0,0,0,51,96.7a6.25,6.25,0,0,0,6.7,2.48,5.85,5.85,0,0,0,1.6-.7L85.34,81.86a5.42,5.42,0,0,0,2.45-3.64,5.77,5.77,0,0,0-1-4.37,6.25,6.25,0,0,0-6.7-2.48,5.72,5.72,0,0,0-1.6.7l-10,6.35a19.1,19.1,0,0,1-5.29,2.32A20.72,20.72,0,0,1,41,72.5,19.16,19.16,0,0,1,37.75,58a18,18,0,0,1,8.13-12.06L72,29.32A19.05,19.05,0,0,1,77.26,27a20.71,20.71,0,0,1,22.23,8.25,19.14,19.14,0,0,1,3.28,14.5,20.15,20.15,0,0,1-.62,2.43l-.5,1.5-1.33-1a33.78,33.78,0,0,0-10.2-5.1l-1-.29.09-1a5.86,5.86,0,0,0-1.06-3.88A6.23,6.23,0,0,0,81.49,40a5.72,5.72,0,0,0-1.6.7L53.8,57.29a5.45,5.45,0,0,0-2.45,3.63,5.84,5.84,0,0,0,1,4.38A6.25,6.25,0,0,0,59,67.78a6,6,0,0,0,1.6-.7l10-6.34a18.61,18.61,0,0,1,5.3-2.33,20.7,20.7,0,0,1,22.23,8.24,19.16,19.16,0,0,1,3.28,14.5,18,18,0,0,1-8.13,12.06L67.19,109.83a19.18,19.18,0,0,1-5.3,2.33"/>
</svg>