<svg xmlns="http://www.w3.org/2000/svg" width="112px" height="96px">
	<path fill-rule="evenodd" fill="rgb(255, 255, 255)"
	      d="M-0.000,96.000 L-0.000,0.000 L112.000,0.000 L112.000,96.000 L-0.000,96.000 ZM48.000,12.000 L14.000,12.000 L14.000,29.000 L48.000,29.000 L48.000,12.000 ZM48.000,40.000 L14.000,40.000 L14.000,57.000 L48.000,57.000 L48.000,40.000 ZM48.000,67.000 L14.000,67.000 L14.000,84.000 L48.000,84.000 L48.000,67.000 ZM98.000,12.000 L64.000,12.000 L64.000,29.000 L98.000,29.000 L98.000,12.000 ZM98.000,40.000 L64.000,40.000 L64.000,57.000 L98.000,57.000 L98.000,40.000 ZM98.000,67.000 L64.000,67.000 L64.000,84.000 L98.000,84.000 L98.000,67.000 Z"/>
</svg>
